<svg width="359" height="418" viewBox="0 0 359 418" fill="none" xmlns="http://www.w3.org/2000/svg">
<path fill-rule="evenodd" clip-rule="evenodd" d="M181.803 0.778297C161.718 3.41268 124.103 14.125 116.187 19.4637C114.424 20.652 109.616 23.2205 105.502 25.1708C96.7943 29.2992 80.4758 39.2325 78.5139 41.5993C77.7698 42.496 74.8394 44.718 71.9998 46.5365C62.6142 52.5483 31.8043 84.6532 25.4059 95.0909C24.2011 97.0552 21.1361 101.761 18.5937 105.548C7.22123 122.485 -3.67843 150.879 1.19191 150.879C3.95971 150.879 9.30781 148.264 22.7429 140.341C52.7509 122.642 95.4089 107.015 135.923 98.8767C229.004 80.1813 304.457 139.798 216.214 162.315C130.961 184.07 87.5623 222.153 57.9763 301.173C47.8985 328.09 35.7171 389.628 35.6882 413.769C35.6782 421.836 38.5308 418.056 43.6336 403.24C81.6088 292.971 130.813 249.201 234.666 233.303C268.069 228.19 284.277 224.301 297.588 218.205C300.488 216.877 303.125 215.79 303.447 215.79C303.77 215.79 306.828 214.095 310.244 212.023C313.659 209.951 317.661 207.591 319.137 206.781C328.303 201.742 348.083 180.966 349.54 174.846C349.866 173.473 350.712 171.676 351.417 170.852C362.989 157.345 360.976 111.001 347.732 85.9684C339.143 69.7357 310.514 42.0287 302.329 42.0287C301.86 42.0287 299.252 40.8433 296.533 39.3943C261.508 20.7259 192.064 18.7017 142.452 34.9025C126.035 40.2631 126.352 39.636 144.568 30.7122C167.709 19.3768 195.824 10.9573 221.784 7.58795C239.294 5.31507 239.343 5.30309 238.962 3.29584C238.476 0.73935 196.269 -1.1201 181.803 0.778297Z" fill="#07B9FF"/>
</svg>
